<?xml version="1.0" standalone="no"?>
<!DOCTYPE svg PUBLIC "-//W3C//DTD SVG 20010904//EN"
 "http://www.w3.org/TR/2001/REC-SVG-20010904/DTD/svg10.dtd">
<svg version="1.0" xmlns="http://www.w3.org/2000/svg"
 width="980.000000pt" height="980.000000pt" viewBox="0 0 980.000000 980.000000"
 preserveAspectRatio="xMidYMid meet">

<g transform="translate(0.000000,980.000000) scale(0.100000,-0.100000)"
fill="#000000" stroke="none">
<path d="M2235 5648 c-47 -16 -92 -55 -119 -101 -17 -29 -58 -178 -130 -472
-58 -236 -132 -538 -165 -670 -33 -132 -56 -243 -52 -248 4 -4 99 -6 211 -5
l204 3 80 388 c44 213 83 387 86 387 3 0 81 -145 174 -322 93 -178 181 -341
195 -363 52 -78 171 -123 254 -96 19 7 50 27 70 46 37 36 51 61 263 467 76
147 142 268 145 268 3 0 41 -170 84 -377 43 -208 83 -384 88 -390 11 -15 402
-19 411 -5 3 5 -33 163 -80 353 -46 189 -118 483 -159 653 -42 170 -85 331
-97 357 -49 115 -178 170 -277 119 -65 -33 -105 -92 -248 -369 -233 -452 -261
-505 -271 -509 -5 -1 -99 171 -208 384 -206 400 -252 472 -321 500 -38 16 -95
17 -138 2z"/>
<path d="M6230 5649 c-43 -17 -89 -58 -115 -102 -23 -41 -72 -229 -300 -1162
-29 -121 -50 -223 -46 -228 4 -4 99 -6 211 -5 l204 3 38 185 c103 503 122 590
127 590 3 0 85 -151 181 -335 96 -185 187 -351 202 -369 16 -19 51 -46 80 -60
84 -42 167 -32 228 28 38 36 76 104 276 488 70 136 132 244 136 240 4 -4 42
-174 84 -377 42 -204 78 -376 80 -382 2 -10 53 -13 208 -13 113 0 207 3 210 8
2 4 -22 113 -54 242 -32 129 -106 432 -165 672 -116 475 -126 502 -203 553
-87 57 -188 41 -263 -42 -20 -22 -115 -193 -216 -388 -217 -418 -226 -435
-235 -435 -4 0 -66 116 -139 258 -290 564 -301 582 -381 623 -40 20 -107 24
-148 8z"/>
<path d="M4346 5573 c-24 -38 -78 -122 -120 -188 l-76 -120 468 -5 467 -5 57
-27 c76 -35 142 -98 175 -167 25 -51 28 -66 28 -166 0 -101 -2 -114 -28 -164
-38 -72 -106 -135 -175 -163 -54 -22 -72 -23 -334 -26 l-278 -3 -2 273 -3 273
-170 3 c-93 1 -180 0 -193 -3 l-22 -5 2 -458 3 -457 490 0 c552 0 547 -1 705
77 67 32 102 59 171 127 133 133 196 261 219 446 12 96 7 180 -16 287 -56 262
-268 465 -546 522 -62 13 -146 16 -428 16 l-350 0 -44 -67z"/>
</g>
</svg>
